<?xml version="1.0" encoding="UTF-8"?>
<!DOCTYPE svg PUBLIC "-//W3C//DTD SVG 1.1//EN" "http://www.w3.org/Graphics/SVG/1.1/DTD/svg11.dtd">
<svg xmlns="http://www.w3.org/2000/svg" version="1.1" width="1920px" height="1305px" style="shape-rendering:geometricPrecision; text-rendering:geometricPrecision; image-rendering:optimizeQuality; fill-rule:evenodd; clip-rule:evenodd" xmlns:xlink="http://www.w3.org/1999/xlink">
<g><path style="opacity:0.997" fill="#fe0000" d="M 1646.5,-0.5 C 1649.83,-0.5 1653.17,-0.5 1656.5,-0.5C 1687.19,12.1784 1716.86,27.0117 1745.5,44C 1751.67,48.8333 1757.83,53.6667 1764,58.5C 1764.67,59.8333 1764.67,61.1667 1764,62.5C 1759.67,67.8274 1755.01,72.8274 1750,77.5C 1749.37,79.9034 1750.2,81.7367 1752.5,83C 1769.04,91.9584 1786.04,99.9584 1803.5,107C 1819.97,106.005 1836.3,103.838 1852.5,100.5C 1874.85,119.19 1897.19,137.856 1919.5,156.5C 1919.5,157.5 1919.5,158.5 1919.5,159.5C 1914.15,167.363 1907.81,174.53 1900.5,181C 1892.6,187.201 1884.43,193.035 1876,198.5C 1875.33,199.833 1875.33,201.167 1876,202.5C 1877.64,204.977 1879.48,207.31 1881.5,209.5C 1755.2,283.309 1630.2,359.142 1506.5,437C 1398.31,505.871 1292.31,577.871 1188.5,653C 1291.28,730.886 1394.94,807.553 1499.5,883C 1530.99,904.914 1562.66,926.58 1594.5,948C 1614.59,960.796 1635.09,972.963 1656,984.5C 1652.6,996.981 1647.26,1008.65 1640,1019.5C 1627.37,1036.38 1611.87,1049.88 1593.5,1060C 1558.66,1075.45 1524.32,1091.95 1490.5,1109.5C 1489.37,1111.07 1489.2,1112.74 1490,1114.5C 1492.83,1120.17 1495.67,1125.83 1498.5,1131.5C 1490.36,1134.73 1483.03,1139.23 1476.5,1145C 1452.59,1161.21 1426.42,1172.04 1398,1177.5C 1393.4,1177.23 1388.9,1176.39 1384.5,1175C 1361.85,1164.51 1338.85,1154.84 1315.5,1146C 1309.77,1145.52 1304.44,1146.85 1299.5,1150C 1264.63,1175.94 1226.3,1195.27 1184.5,1208C 1172.89,1208.68 1161.89,1206.35 1151.5,1201C 1085.67,1160.75 1023,1116.09 963.5,1067C 928.833,1037.67 894.167,1008.33 859.5,979C 839.374,962.44 818.707,946.606 797.5,931.5C 787.467,938.854 777.8,946.687 768.5,955C 693.833,1010.67 619.167,1066.33 544.5,1122C 467.218,1182.13 390.551,1242.96 314.5,1304.5C 299.833,1304.5 285.167,1304.5 270.5,1304.5C 251.149,1292.07 231.649,1279.73 212,1267.5C 214.095,1258.57 217.762,1250.24 223,1242.5C 224.035,1237.08 221.869,1233.58 216.5,1232C 200.624,1230.32 184.957,1231.65 169.5,1236C 155.264,1240.14 140.931,1243.48 126.5,1246C 111.765,1240.14 98.0983,1232.47 85.5,1223C 59.8196,1203.33 35.3196,1182.16 12,1159.5C 8.98068,1156.15 8.31401,1152.48 10,1148.5C 19.6636,1139.84 28.9969,1130.84 38,1121.5C 41.8903,1116.39 44.7237,1110.72 46.5,1104.5C 45.5298,1101.23 44.0298,1098.23 42,1095.5C 25.5995,1077.01 11.4329,1057.01 -0.5,1035.5C -0.5,1034.83 -0.5,1034.17 -0.5,1033.5C 49.8038,996.343 100.137,959.176 150.5,922C 263.329,847.085 376.329,772.418 489.5,698C 500.991,689.421 512.657,681.088 524.5,673C 412.475,562.034 311.309,442.534 221,314.5C 205.584,292.008 190.918,269.008 177,245.5C 170.473,233.779 164.473,221.779 159,209.5C 157.029,205.26 155.695,200.927 155,196.5C 191.014,165.569 230.181,139.236 272.5,117.5C 289.067,124.45 305.401,131.95 321.5,140C 331.764,150.651 344.098,153.984 358.5,150C 371.406,146.76 380.24,138.927 385,126.5C 389.657,100.844 404.49,84.3438 429.5,77C 442.923,73.199 456.589,71.5323 470.5,72C 490.294,76.1542 508.628,83.8209 525.5,95C 648.902,211.434 776.736,322.268 909,427.5C 1111.58,298.695 1318.08,175.861 1528.5,59C 1547.17,49 1565.83,39 1584.5,29C 1605.14,18.8461 1625.8,9.01273 1646.5,-0.5 Z"/></g>
</svg>
